<?xml version="1.0" encoding="iso-8859-1"?>
<!-- Uploaded to: SVG Repo, www.svgrepo.com, Generator: SVG Repo Mixer Tools -->
<svg fill="#000000" version="1.1" id="Layer_1" xmlns="http://www.w3.org/2000/svg" xmlns:xlink="http://www.w3.org/1999/xlink" 
	 viewBox="0 0 496 496" xml:space="preserve">
<g>
	<g>
		<g>
			<path d="M496,48V32h-72v-8c0-13.232-10.768-24-24-24s-24,10.768-24,24v8h-72v16h88v48h-16v16h-24
				c-2.504,0-4.896-1.192-6.408-3.192L324,80H172l-21.6,28.808c-1.504,2-3.896,3.192-6.4,3.192h-24V96h-16V48h88V32h-72v-8
				c0-13.232-10.768-24-24-24S72,10.768,72,24v8H0v16h88v48H72v72c0,13.232,10.768,24,24,24c10.416,0,19.216-6.712,22.528-16h21.144
				c7.848,0,14.496,5.624,15.784,13.368L158.552,208H144c-39.704,0-72,32.296-72,72v200H56v16h48v-16H88V280
				c0-30.872,25.128-56,56-56h17.216H168h8v16h-32v16h16v16h-16v16h64v16h-48c-8.824,0-16,7.176-16,16v128c0,8.824,7.176,16,16,16
				h176c8.824,0,16-7.176,16-16V320c0-8.824-7.176-16-16-16h-48v-16h64v-16h-16v-16h16v-16h-32v-16h8h6.784H352
				c30.872,0,56,25.128,56,56v200h-16v16h48v-16h-16V280c0-39.704-32.296-72-72-72h-14.552l3.104-18.632
				c1.28-7.744,7.928-13.368,15.776-13.368h21.144c3.312,9.288,12.112,16,22.528,16c13.232,0,24-10.768,24-24V96h-16V48H496z M88,24
				c0-4.416,3.584-8,8-8s8,3.584,8,8v8H88V24z M104,168c0,4.416-3.584,8-8,8s-8-3.584-8-8v-56h16V168z M208,96h80v24h-80V96z
				 M176,272v-16h64v16H176z M192,240v-16h112v16H192z M272,288v16h-48v-16H272z M336,320v128H160V320H336z M320,272h-64v-16h64V272
				z M376,160h-19.672c-11.768,0-22.168,6.312-27.728,16H312v16h11.888l-2.664,16H174.776l-2.664-16H296v-16H167.4
				c-5.56-9.688-15.968-16-27.728-16H120v-32h24c7.512,0,14.696-3.584,19.192-9.6L180,96h12v24c0,8.824,7.176,16,16,16h80
				c8.824,0,16-7.176,16-16V96h12l16.8,22.408c4.512,6.008,11.696,9.592,19.2,9.592h24V160z M408,168c0,4.416-3.584,8-8,8
				c-4.416,0-8-3.584-8-8v-56h16V168z M392,32v-8c0-4.416,3.584-8,8-8c4.416,0,8,3.584,8,8v8H392z"/>
			<path d="M248,440c30.872,0,56-25.128,56-56s-25.128-56-56-56s-56,25.128-56,56S217.128,440,248,440z M248,344
				c22.056,0,40,17.944,40,40c0,22.056-17.944,40-40,40c-22.056,0-40-17.944-40-40C208,361.944,225.944,344,248,344z"/>
			<path d="M248,416c17.648,0,32-14.352,32-32s-14.352-32-32-32s-32,14.352-32,32S230.352,416,248,416z M248,368
				c8.824,0,16,7.176,16,16c0,8.824-7.176,16-16,16c-8.824,0-16-7.176-16-16C232,375.176,239.176,368,248,368z"/>
			<rect x="304" y="416" width="16" height="16"/>
		</g>
	</g>
</g>
</svg>